<mxfile host="app.diagrams.net" modified="2023-10-10T12:41:29.562Z" agent="Mozilla/5.0 (Windows NT 10.0; Win64; x64) AppleWebKit/537.36 (KHTML, like Gecko) Chrome/117.0.0.0 Safari/537.36 Edg/117.0.2045.60" etag="uJ6csl5ISAILHsJuDYWu" version="22.0.4" type="device">
  <diagram name="Sida-1" id="o7zmFAcsYQNQFQcaegoq">
    <mxGraphModel dx="832" dy="481" grid="1" gridSize="10" guides="1" tooltips="1" connect="1" arrows="1" fold="1" page="1" pageScale="1" pageWidth="827" pageHeight="1169" math="0" shadow="0">
      <root>
        <mxCell id="0" />
        <mxCell id="1" parent="0" />
        <mxCell id="Kso2-9epXWTagpwXikNB-2" style="edgeStyle=orthogonalEdgeStyle;rounded=0;orthogonalLoop=1;jettySize=auto;html=1;exitX=0.5;exitY=1;exitDx=0;exitDy=0;entryX=0.5;entryY=0;entryDx=0;entryDy=0;" edge="1" parent="1" source="Kso2-9epXWTagpwXikNB-1" target="Kso2-9epXWTagpwXikNB-4">
          <mxGeometry relative="1" as="geometry">
            <mxPoint x="170" y="140" as="targetPoint" />
            <Array as="points" />
          </mxGeometry>
        </mxCell>
        <mxCell id="Kso2-9epXWTagpwXikNB-1" value="Start" style="rounded=1;whiteSpace=wrap;html=1;" vertex="1" parent="1">
          <mxGeometry x="110" y="50" width="120" height="60" as="geometry" />
        </mxCell>
        <mxCell id="Kso2-9epXWTagpwXikNB-4" value="Regnar det?" style="rhombus;whiteSpace=wrap;html=1;" vertex="1" parent="1">
          <mxGeometry x="120" y="180" width="100" height="80" as="geometry" />
        </mxCell>
        <mxCell id="Kso2-9epXWTagpwXikNB-6" value="GÃ¥ ut" style="rounded=0;whiteSpace=wrap;html=1;" vertex="1" parent="1">
          <mxGeometry x="110" y="330" width="120" height="50" as="geometry" />
        </mxCell>
        <mxCell id="Kso2-9epXWTagpwXikNB-7" value="Nej" style="endArrow=classic;html=1;rounded=0;exitX=0.5;exitY=1;exitDx=0;exitDy=0;" edge="1" parent="1" source="Kso2-9epXWTagpwXikNB-4" target="Kso2-9epXWTagpwXikNB-6">
          <mxGeometry relative="1" as="geometry">
            <mxPoint x="100" y="290" as="sourcePoint" />
            <mxPoint x="260" y="290" as="targetPoint" />
            <Array as="points" />
          </mxGeometry>
        </mxCell>
        <mxCell id="Kso2-9epXWTagpwXikNB-11" value="" style="endArrow=classic;html=1;rounded=0;" edge="1" parent="1">
          <mxGeometry width="50" height="50" relative="1" as="geometry">
            <mxPoint x="220" y="220" as="sourcePoint" />
            <mxPoint x="220" y="220" as="targetPoint" />
          </mxGeometry>
        </mxCell>
        <mxCell id="Kso2-9epXWTagpwXikNB-18" value="" style="endArrow=classic;html=1;rounded=0;" edge="1" parent="1">
          <mxGeometry relative="1" as="geometry">
            <mxPoint x="220" y="219.5" as="sourcePoint" />
            <mxPoint x="320" y="219.5" as="targetPoint" />
          </mxGeometry>
        </mxCell>
        <mxCell id="Kso2-9epXWTagpwXikNB-19" value="Ja" style="edgeLabel;resizable=0;html=1;align=center;verticalAlign=middle;" connectable="0" vertex="1" parent="Kso2-9epXWTagpwXikNB-18">
          <mxGeometry relative="1" as="geometry" />
        </mxCell>
        <mxCell id="Kso2-9epXWTagpwXikNB-20" value="Stanna hemma" style="rounded=0;whiteSpace=wrap;html=1;" vertex="1" parent="1">
          <mxGeometry x="320" y="200" width="110" height="50" as="geometry" />
        </mxCell>
        <mxCell id="Kso2-9epXWTagpwXikNB-21" value="Slut" style="rounded=1;whiteSpace=wrap;html=1;" vertex="1" parent="1">
          <mxGeometry x="330" y="350" width="120" height="60" as="geometry" />
        </mxCell>
        <mxCell id="Kso2-9epXWTagpwXikNB-22" value="" style="endArrow=classic;html=1;rounded=0;entryX=0;entryY=0.5;entryDx=0;entryDy=0;" edge="1" parent="1" target="Kso2-9epXWTagpwXikNB-21">
          <mxGeometry width="50" height="50" relative="1" as="geometry">
            <mxPoint x="230" y="350" as="sourcePoint" />
            <mxPoint x="280" y="300" as="targetPoint" />
          </mxGeometry>
        </mxCell>
        <mxCell id="Kso2-9epXWTagpwXikNB-25" value="" style="endArrow=classic;html=1;rounded=0;exitX=0.5;exitY=1;exitDx=0;exitDy=0;entryX=0.4;entryY=-0.083;entryDx=0;entryDy=0;entryPerimeter=0;" edge="1" parent="1" source="Kso2-9epXWTagpwXikNB-20" target="Kso2-9epXWTagpwXikNB-21">
          <mxGeometry width="50" height="50" relative="1" as="geometry">
            <mxPoint x="390" y="350" as="sourcePoint" />
            <mxPoint x="440" y="300" as="targetPoint" />
          </mxGeometry>
        </mxCell>
      </root>
    </mxGraphModel>
  </diagram>
</mxfile>
